<?xml version="1.0" encoding="UTF-8"?>
<svg id="Layer_2" data-name="Layer 2" xmlns="http://www.w3.org/2000/svg" viewBox="0 0 1004.01 488.24">
  <defs>
    <style>
      .cls-1 {
        fill: #fff;
      }

      .cls-2 {
        fill: #221206;
      }

      .cls-3 {
        fill: #fceacb;
      }

      .cls-4 {
        fill: #b21d18;
      }
    </style>
  </defs>
  <g id="Layer_1-2" data-name="Layer 1">
    <g>
      <path class="cls-1" d="m740.49,415.05c-5.61-1.14-9.3,5.43-11.19,9.77-1.19,2.39-1.58,4.3-1.18,5.74.81,2.91,2.63,3.45,5.48,1.61,4.21-2.58,6.85-9.41,8.65-13.85.56-1.4-.28-2.97-1.76-3.27Z"/>
      <path class="cls-1" d="m896.21,98.39l-11.45,38.44c-.05.18.06.36.24.4l22.17,4.83c.23.05.43-.16.38-.39l-10.72-43.26c-.08-.32-.52-.33-.62-.02Z"/>
      <path class="cls-1" d="m621.68,146.64c10.87,1.21,17.85-3.43,20.95-13.93,1.45-4.89,2.45-10.19,3.02-15.9,1.3-13.03,1.16-25.61-.42-37.74-1.87-14.39-7.74-25.3-24.38-23.71-.43.04-.75.4-.75.83v88.69c0,.9.68,1.66,1.58,1.76Z"/>
      <path class="cls-1" d="m729.55,444.81c-3.44.44-7.9,2.41-8.84,5.95-.44,1.67.79,2.9,2.43,2.62,2.93-.5,5.71-5.01,6.97-7.81.17-.39-.14-.81-.56-.76Z"/>
      <path class="cls-1" d="m327.2,407.91c-.31.07-.61.19-.89.36-4.57,2.93-6.23,10.8-6.17,15.79.04,3.3,2.15,8.09,6.08,4.45,1.35-1.25,2.34-2.87,2.95-4.85.14-.45-.09-.94-.53-1.12-2.07-.85-3.03-2.24-2.9-4.18,0-.17.06-.34.14-.49l.66-1.28c.39-.75,1.47-.75,1.86,0,.55,1.05.95,1.66,1.21,1.81.53.31,1.2-.01,1.3-.62.49-3.14,1.69-10.96-3.71-9.87Z"/>
      <path class="cls-1" d="m516.05,408.35c4.47-.87,8.93-3.51,9.26-8.43.1-1.45-1.12-2.65-2.54-2.49-3.46.39-6.74,7.06-7.4,10.24-.08.4.28.76.68.68Z"/>
      <path class="cls-1" d="m666.57,409.27c.41-1.42-.53-2.86-1.97-3.02-3.5-.36-8.19,5.51-9.53,8.5-.17.38.1.81.52.82,4.6.12,9.58-1.52,10.98-6.3Z"/>
      <path class="cls-1" d="m227.02,111.87c7.05-.57,13.86-2.87,18.2-8.83,4.29-5.89,5.11-15.79,3.53-22.96-2.37-10.77-12.33-12.05-21.47-9.35-.47.14-.8.58-.8,1.08v39.56c0,.3.25.53.54.5Z"/>
      <path class="cls-1" d="m347.31,118.07l21.48-1.73c.42-.04.7-.45.58-.85l-10.43-35.18c-.04-.14-.24-.15-.29-.01l-12.03,36.9c-.15.45.21.91.69.87Z"/>
      <path class="cls-1" d="m397.03,412.16c4.05-1.14,9.07-4.31,9.56-8.73.23-2.09-1.46-3.35-3.39-2.72-3.43,1.13-5.96,7.05-6.98,10.64-.14.49.32.95.81.81Z"/>
      <path class="cls-1" d="m632.04,403.17c-3.53,1.59-5.76,6.19-6.9,9.88-.88,2.83-2.92,9.75,1.63,10.84,2.31.56,4.93-2.86,6.14-4.7.25-.39.16-.9-.21-1.17-1.99-1.49-2.54-3.6-1.65-6.33.15-.43.41-.74.8-.91.42-.18.91.02,1.08.45.44,1.1.79,1.86,1.05,2.28.37.59,1.25.49,1.48-.17.84-2.45,1.46-5.52,1.13-7.74-.33-2.22-2.46-3.37-4.55-2.43Z"/>
      <path class="cls-1" d="m601.36,401.94c-4.57,4.81-6.52,10.51-5.83,17.12.25,2.45,2.72,3.84,4.9,2.16,1.2-.93,2.4-2.27,3.59-4.02-1.7-3.02-2.15-5.6-1.34-7.75.35-.93,1.69-.88,1.97.08l.42,1.39c.23.78,1.34.79,1.58.01,1.14-3.75,2.6-13.73-5.29-8.99Z"/>
      <path class="cls-1" d="m424.62,404.6c-.07-.33-.52-.39-.68-.09l-5.97,11.54c-.05.1.03.22.15.21,1.69-.18,2.67.38,2.94,1.68.06.3,0,.6-.13.87l-.52,1.01c-.45.87.03,1.94.99,2.18,6.3,1.58,7.23-5.2,5.73-9.35-1.27-3.51-2.1-6.2-2.51-8.05Z"/>
      <path class="cls-1" d="m469.46,430.25c-4.06,1.8-6.7,3.66-7.94,5.58-1.07,1.67-1.06,2.98.03,3.93,1.09.95,2.39.78,3.89-.51,1.73-1.49,3.22-4.36,4.45-8.63,0-.05-.13-.23-.16-.25-.03-.03-.23-.14-.27-.12Z"/>
      <path class="cls-1" d="m1003.97,210.85c-.21-10.54-4.61-19.78-12.5-26.44l-10.21-49.06c-3.69-17.67-8.27-37.21-12.71-56.16-2.54-10.81-4.93-21.02-7.1-30.64-3.43-15.28-15.15-26.54-30.56-29.37-26.2-4.87-43.67-7.95-53.4-9.42-11.21-1.71-21.74,1.29-29.64,8.46-1.76,1.6-3.35,3.37-4.74,5.3-1.98-.76-4.04-1.35-6.16-1.75-3.57-.68-11.19-1.92-38.62-5.57-13.71-1.81-24.03,2.97-30.78,9.59-8.11-12.57-20.28-15.16-25.73-15.67-12.57-1.2-27.53-2.28-45.75-3.29-8.94-.5-17.29,2.13-23.91,7.46-14.78-8.14-30.99-10.13-35.78-10.56-15.34-1.38-35.59-2.29-60.22-2.71-2.55-.03-5.08.23-7.56.81-3.35-.93-6.92-1.42-10.66-1.48-19.48-.29-31.67-.4-37.26-.35-7.28.07-14.13,2.27-19.81,6.28-6.32-4.33-13.8-6.41-22.34-6.2-19.34.45-32.47.81-40.14,1.1-9.41.35-18.02,4.25-24.24,10.97-.81.88-1.55,1.77-2.23,2.67-7.71-8.77-18.45-11.86-27.18-11.51-9.93.41-26.89,1.61-51.83,3.67-18.51,1.52-28.44,12.09-32.36,23.51-7.15-6.57-16-11.4-26.2-13.96-9.18-2.31-20.86-2.26-28.72-1.43-19.04,1.98-36.97,5.03-56.03,8.27-4.34.74-8.77,1.49-13.35,2.26-2.91.49-5.66,1.19-8.24,2.11-18.2-15.08-42.2-17.03-59.47-15.93-42.57,2.73-73.37,21.62-91.54,56.15C7.04,86.89,1.41,107.49.25,129.22c-.86,16.09.06,40.02,9.32,62.72,10.12,24.82,27.6,41.78,50.73,49.3-10.17,19.66-11.11,43.02-2.38,61.34,8.01,16.82,22.95,28.02,42.05,31.54,11.19,2.06,26.03,1.3,39.07-5.41,6.3,16.87,11.9,31.94,16.72,44.93,4.38,11.83,11.4,18.17,18.18,21.54-3.68,4.05-6.56,8.84-8.46,14.2-5.35,15.1-1.97,32.24,8.82,44.73,7.93,9.19,17.22,14.63,26.19,19.89l.34.2c1.07.63,2.16,1.27,3.32,1.96,5.12,3.04,10.89,4.64,16.69,4.64,10.29,0,19.75-4.88,25.95-13.37.39-.53.79-1.06,1.19-1.6,6.36,6.04,14.89,9.45,23.81,9.45,2.31,0,4.65-.23,6.94-.67,4.52-.88,8.74-2.41,12.6-4.56,2.48.91,5.08,1.56,7.77,1.94,10,1.4,19.7-1.19,27.2-7.13.92-.09,1.84-.22,2.74-.38,2.7-.48,5.31-1.18,7.8-2.1,2.28.32,4.6.39,6.93.21l3.64-.3c2.16-.17,4.29-.56,6.37-1.16,1.66.14,3.33.14,5,.02l4.1-.32s.03,0,.05,0c.03,0,.07,0,.1,0,2.48-.21,4.92-.69,7.26-1.44,6.83,1.37,13.81.8,20.5-1.7,3.05.6,6.15.86,9.27.76,4.73-.13,9.33-.9,13.73-2.31,5.35,1.24,10.87,1.44,16.53.59.18.3.37.61.56.91,6.9,10.78,18.88,17.21,32.06,17.21,6.41,0,12.87-1.57,18.71-4.53,7.21-3.67,12.92-8.78,17.33-15.53,2.59-.19,5.18-.64,7.72-1.35,9.77,2.65,20.63,1.74,30.53-2.58,5.77,4.74,12.58,7.93,20.07,9.36,10.1,1.93,20.84.5,30.68-4.01,4.22,1.01,8.62,1.34,13.12.98,3.01-.24,5.95-.78,8.78-1.61,7.26,3.3,15.43,4.31,23.6,2.88,1.97.66,4.02,1.12,6.13,1.39l4.04.5c2.64.33,5.28.33,7.89,0,1.32.45,2.67.82,4.03,1.12,4.29.93,8.69,1.1,13.12.51,1.41.44,2.87.79,4.34,1.06,3.35.62,6.72.81,10.05.58l4.15.71c4.82,12.94,16.59,22.05,31.09,23.66,1.5.17,3.06.25,4.61.25,8.9,0,25.24-2.88,37.37-21.61,1.34-.72,2.65-1.5,3.92-2.33,1.17,1.68,2.34,3.32,3.52,4.91,4.52,6.08,11.13,10.35,18.59,12.03,7.38,1.68,15.33.64,21.89-2.81l.11-.06s.07-.04.1-.05c7.03-3.76,14.1-8.08,21.02-12.86,9.47-6.53,16.17-15.08,19.91-25.44,4.77-13.23,2.9-27.37-4.28-38.37,18.7,3.81,35.8,7.75,51.16,11.79,2.81.75,5.68,1.13,8.54,1.13.34,0,.69,0,.98-.02,17.06-.49,30.54-12.13,33.55-28.96,4.03-22.62,6.4-36.14,7.45-42.53,4.04-24.17-9.14-35.8-17.38-40.6-1.17-.68-2.29-1.24-3.5-1.75,10.86-6.19,17.83-17.57,17.69-30.87-.04-4.12-.17-11.26-.4-21.65,5.81,1.32,11.88,2.72,18.31,4.21,2.73.64,5.51.96,8.25.96,15.96,0,29.25-10.6,33.06-26.4,1-4.19,1.36-9.01,1.21-16.1Zm-316.44-51.19c.5-2.47,3.17-3.27,5.18-3.67,2.64-.52,3.9-3.36,4.13-5.75.33-3.52.62-9.58.85-18.17.46-16.67.8-39.5,1.02-68.5.03-3.42-.51-7.6-4.12-8.98-2.79-1.07-5.2-1.57-5.43-4.92-.33-4.96-1.59-13.25,5.23-12.87,17.49.97,32.34,2.03,44.56,3.2,2.58.24,3.62,2,4.55,4.47,7.63,20.33,14.41,39.4,20.32,57.22.08.26.44.27.55.02,6.91-16.47,14.69-34.26,23.34-53.37,1.13-2.5,4.03-2.74,6.68-2.39,19.95,2.65,32.27,4.41,36.96,5.3,2.49.47,3.81,2.26,3.95,5.37.18,4.03,1.34,11.46-4.05,11.75-3.46.18-5.89,2.04-5.96,5.59-.54,29.25-.49,60.12.14,92.61.05,2.43.71,4.63,2,6.59.23.36.54.65.91.87.57.34,1.76,1.1,3.59,2.27,2.4,1.55,1.62,6.1,1.6,9.28-.03,4.07-1.53,6.63-5.75,5.88-22.75-4.07-37.52-6.54-44.31-7.41-.3-.04-.59-.14-.86-.29-1.89-1.06-2.89-2.58-3-4.56-.14-2.72-.06-5.32.24-7.79.65-5.45,7.75-2.29,7.83-9.11.26-19.63.24-37.28-.06-52.95,0-.24-.34-.3-.43-.07-9.26,24.86-16.56,45.06-21.89,60.6-1.2,3.51-2.64,5.75-6.51,5.3-3.96-.46-9.06-.14-10.5-4.38-10.66-31.38-18.36-53.78-23.09-67.2-.33-.93-.72-1.81-1.19-2.66-.1-.18-.37-.11-.37.1-.05,13.21-.08,28.97-.09,47.28,0,4.66.11,9.78,4.57,11.62,2.57,1.05,4.12,2.47,4.14,5.12,0,3.41-.01,5.96-.07,7.64,0,.24-.05.47-.14.7-.85,2.28-2.29,3.31-4.34,3.1-12.61-1.32-24.55-2.49-35.82-3.52-2.69-.25-4.2-1.9-4.53-4.96-.35-3.29-.29-6.08.17-8.36Zm6.43,129.43c4.36.97,8.06,1.16,9.5,5.09.88,2.38-.57,8.11-1.1,10.83-3.07,15.83-5.44,28.69-7.09,38.59-.03.18-.08.35-.16.51-1.1,2.31-2.74,3.33-4.93,3.07-35.21-4.15-70.88-7.01-107-8.58-5.16-.22-4.45-6.06-4.4-9.52.05-3.96.57-6.9,5.16-7.19,4.93-.3,7.48-3.19,7.67-8.66.79-23.45,1.32-54.46,1.57-89.33.05-7.28,1.23-16.56-6.26-18.24-4.39-.98-7.2-1.25-7.18-6.48.02-4.3-.55-8.25,2.15-10.63.79-.69,2.42-1,4.91-.93,22.22.61,43.97,1.81,65.25,3.58.18.01.35.05.51.12,2.13.81,3.27,2.24,3.42,4.28.28,3.67.27,6.73-.04,9.16-.2,1.58-1.28,2.91-2.78,3.43-2.03.71-5.4-.12-7.52,1.75-2.03,1.79-3.08,3.78-3.16,5.97-.93,25.8-1.55,57.95-1.86,96.44-.02,2.62.26,4.92.83,6.9.36,1.23,1.36,2.17,2.61,2.43,6.48,1.38,12.53,1.31,18.14-.22,13.27-3.6,18.7-16.84,23.04-28.82,1.39-3.85,4.81-4.42,8.72-3.55Zm.46,106.06c-.04.57-.19,1.15-.45,1.68s-.62,1.04-1.1,1.47c-.71.65-1.55,1.04-2.41,1.19-.29.05-.58.07-.87.07-.58-.01-1.14-.13-1.67-.36-.53-.23-1.01-.57-1.42-1.01-.82-.89-1.17-2.05-1.09-3.2.04-.57.19-1.15.45-1.68.26-.54.62-1.04,1.1-1.47.71-.65,1.55-1.04,2.41-1.19.29-.05.58-.07.87-.07.58.01,1.14.13,1.67.36.53.23,1.01.57,1.42,1.01.41.45.7.96.88,1.5.18.54.25,1.12.21,1.7Zm-122.75-353.35c.15-4.65-.6-8.33,3.14-10.53.26-.15.56-.23.85-.23,24.1.41,43.44,1.28,58.03,2.59,7.98.71,18.17,3.44,25.21,7.66,14.83,8.88,22.49,22.9,25.78,40.14,6.43,33.68-2.6,79.42-43.75,85.83-7.18,1.12-15.18,1.12-23.3.66-15.96-.89-29.93-1.46-41.91-1.7-.21,0-.42-.04-.62-.12-2.07-.82-3.15-2.13-3.26-3.92-.15-2.36-.12-5.15.08-8.37.17-2.67,1.64-3.68,4.36-4.31,5.57-1.28,5.26-8.54,5.28-13.16.17-38.63.17-65.13,0-79.52-.05-3.84-1.14-7.32-5.33-8.2-3.8-.81-4.68-2.95-4.56-6.82Zm-132.17-10.61c7.7-.29,20.94-.65,39.71-1.09,4.12-.1,5.45.94,7.76,4.48,11.81,18.1,25.34,39.34,40.61,63.71.12.2.43.11.43-.13-.13-13.41-.39-25.69-.76-36.84-.12-3.54,0-6.76-1.18-10.09-1.99-5.62-9.89-1.55-9.92-8.39,0-1.01-.03-3.05-.08-6.12-.05-3.61.97-6.66,4.9-6.7,5.45-.05,17.62.07,36.51.35,4.05.06,6.72,1.15,6.74,5.48,0,4.77,0,7.34-.03,7.72-.53,6.1-6.53,2.81-8.87,7.36-.77,1.49-1.17,3.37-1.19,5.64-.17,24.52-.23,57.6-.17,99.25.01,3.98.83,10.34-5.15,10.39-8.4.07-16.07.07-23,0-2.52-.03-4.44-1.02-5.75-2.99-11.83-17.69-27.94-42.02-48.31-72.98-.1-.15-.34-.08-.34.11.07,27.26.1,43.75.07,49.47,0,2.68.32,4.93,1,6.74.48,1.27,1.51,2.26,2.8,2.68l2.98.97c1.35.44,2.31,1.65,2.44,3.06.25,2.79.22,5.7-.08,8.75-.33,3.29-2.42,4.12-5.62,4.19-11.64.25-23.36.67-35.17,1.27-.19.01-.37,0-.55-.05-4.23-.97-4.01-4.03-3.99-8.09.01-2.53.09-4.23.24-5.1.06-.33.17-.65.32-.96,1.16-2.28,4.16-2.05,5.9-3.7,1.63-1.54,2.48-4.04,2.55-7.49.56-29.36.76-57.62.61-84.77-.01-1.99-.42-3.97-1.23-5.92-.47-1.13-1.42-1.99-2.59-2.34-1.44-.44-3.64-.44-4.79-1.59-1.08-1.08-1.63-2.21-1.64-3.4-.08-5.35-1.27-12.65,4.84-12.88Zm-5.28,162.35c.28,2.39.32,4.98.13,7.77-.48,6.98-6.11,3.6-9.41,6.77-2.05,1.99-3.09,4.4-3.11,7.24-.24,31.72-.24,61.61-.01,89.66.04,5.24.19,8.94.44,11.09.68,5.71,4.97,6.62,9.7,6.84.23.01.46.07.67.17,1.65.77,2.5,2.19,2.57,4.26.21,6.48,1.25,11.35-6.41,11.77-21.19,1.16-41.55,2.58-61.06,4.27-8.15.71-6.49-5.52-6.36-12.08.02-1.23.86-2.46,2.52-3.69.23-.17.5-.29.79-.35,3.47-.69,5.97-1.18,7.41-4.31.88-1.91,1.32-4.45,1.32-7.63-.04-32.09-.04-63.01,0-92.75,0-4.09-.24-10.3-4.43-11.53-3.52-1.03-8.06.1-8.1-5.46-.03-3.75.08-6.59.33-8.5.37-2.83,2.88-3.96,5.72-4.2,26.81-2.23,47.71-3.52,62.7-3.88,2.69-.07,4.22,1.45,4.59,4.54Zm-131.74-31.37c6.5-1.68,7.87-8.19,9.57-13.78,8.37-27.55,16.5-55.16,24.4-82.84,1.09-3.83,1.12-7.04.08-9.61-1-.87-2.19-1.43-3.57-1.67-2.21-.39-4.11-1.16-4.33-3.38-.34-3.52-.37-6.53-.09-9.03.43-3.87,3.01-4.63,6.79-4.94,24.31-2.01,41.19-3.21,50.62-3.6,3.06-.13,4.27,2.02,5.07,4.82,9.91,34.54,19.98,70.08,30.2,106.63.49,1.76,1.29,3.31,2.39,4.64,2.81,3.42,8.11,1.39,8.03,7.52-.03,2.15-.05,4.36-.05,6.61-.01,2.16-1.28,3.71-3.83,4.65-.12.04-.25.07-.38.08l-52.94,3.13c-.19.01-.37,0-.56-.05-2.23-.52-3.42-1.95-3.56-4.3-.07-1.13-.08-3.5-.03-7.11.02-1.56.89-2.98,2.26-3.71,3.06-1.64,6.38-2.4,5.56-6.86-.61-3.37-1.53-7.11-2.76-11.21-.09-.28-.35-.45-.64-.43l-33.56,2.7c-.81.07-1.5.61-1.75,1.38-1.24,3.83-2.23,7.32-2.96,10.48-.39,1.72-.12,3.23.82,4.53.95,1.31,3.09,1.53,4.38,2.16,1.2.59,2,1.78,2.1,3.12.33,4.62,1.56,11.92-5.28,12.48-14.35,1.17-25.14,2.29-32.39,3.34-4.28.62-6.36-1.24-6.35-5.26.02-3.34-.72-8.17,2.76-10.49ZM174.04,61.32c.12-4.4,2.96-5.38,7.14-6.08,24.51-4.09,45.26-7.96,67.53-10.28,5.17-.54,13.4-.54,18.29.69,20.75,5.2,26.25,25.37,22.18,44.29-2.85,13.29-10.33,23.08-22.43,29.35-.31.16-.34.58-.07.79,7.2,5.55,10.01,12.98,13.63,22.27,3.15,8.07,4.88,12.52,5.21,13.34,1.52,3.85,4.2,5.95,8.04,6.29,1.45.13,2.65,1.02,3.02,2.25,1.73,5.65.29,10.09-4.34,13.3-12,8.33-33.64,10.72-42.74-3.25-1.68-2.57-3.3-6.12-4.86-10.64-.39-1.15-3.06-8.29-7.99-21.42-.93-2.45-1.88-4.53-2.87-6.22-1.51-2.57-3.81-3.25-6.91-2.02-.16.07-.27.22-.27.4-.3,12.1-.26,22.12.12,30.06.16,3.33,1.76,5.45,4.81,6.34,2.03.6,3.17,1.06,3.43,1.39.83,1.04,1.25,2.25,1.28,3.63.09,4.58.67,8.48-2.13,11.09-.67.63-2.09,1.13-4.28,1.5-20.27,3.45-35.72,6.03-46.36,7.76-4.33.7-7.14-.23-7.29-4.89-.13-3.69-.13-6.17-.01-7.44.15-1.6,1.1-3.01,2.52-3.75,3.29-1.71,4.5-2.18,5.64-6.1.56-1.91.84-4.88.83-8.91-.01-12.13-.06-39.71-.15-82.75,0-2.65-.45-6.64-3.06-8.16-.24-.15-.5-.25-.78-.3-1.32-.28-3.95-.18-5.22-1.26-2.87-2.44-2.02-7.66-1.91-11.27ZM30.21,130.81c.93-17.46,5.37-33.74,13.32-48.85,14.04-26.68,37.58-38.3,66.91-40.18,13.41-.86,29.5.85,39.59,10.12,8.32,7.64,11.67,17.01,10.06,28.11-1.72,11.79-12.25,18.33-23.38,18.83-7.5.33-15.79-3.88-13.22-12.76.74-2.57,1.1-4.29,1.09-5.15-.1-5.92-3.17-9.85-9.21-11.8-8.71-2.81-18.72,1.77-24.22,8.85-3.89,5.03-6.74,11.19-8.54,18.49-2.29,9.29-3.49,19.99-3.58,32.11-.12,17.06.98,50.11,19.05,58.1,4.84,2.15,11.12,1.65,15.68-1.31,4.1-2.66,6.23-7.02,6.4-13.08.28-10.47.27-19.1-.03-25.91-.17-3.9-2.63-6.33-6.52-6.13-8.59.45-8.38-3.48-8.42-10.46-.02-2.52.11-4.19.38-5.01,1.49-4.53,5.07-4.54,9.2-5.34,19.29-3.7,35.93-6.46,49.93-8.27,2.71-.35,4.3.95,4.76,3.92.53,3.43.62,6.6.28,9.51-.51,4.36-3.73,4.09-5.99,6.79-1.26,1.5-1.9,3.31-1.91,5.44-.09,27.67-.11,46.92-.05,57.73.04,5.74-6.97,6.61-12.03,7.8-6.9,1.62-9.88,1.3-13.92-5.13-.22-.34-.7-.4-.99-.11-9.61,9.45-20.81,15.23-33.58,17.32-10.42,1.71-19.93,1.44-28.53-.81-35.97-9.37-44.22-51.08-42.53-82.82Zm206.55,298.05c-4.07,7.85-9.61,14.62-14.18,20.84-.85,1.17-1.9,1.38-3.13.65-9.59-5.7-17.02-9.57-22.44-15.85-6.89-7.98-5.07-21.04,6.76-23.17,3.51-.63,6.94.53,10.27,3.48.34.3.86.22,1.09-.17,2.73-4.67,6.58-7.24,11.57-7.7,7-.65,12.22,4.9,12.28,11.64.03,3.95-.71,7.38-2.22,10.28Zm7.46-134.39c-.11-.35-.61-.34-.71.01-7.2,24.23-12.73,43.16-16.59,56.79-.73,2.57-1.41,5.22-2.05,7.93-.57,2.38-2.98,3.64-5.57,4.14-13.91,2.67-23.43,4.49-28.57,5.45-4,.75-5.54-2.11-6.83-5.59-8.75-23.61-20.39-54.82-34.94-93.65-2.23-5.95-5.29-11.29-9.2-16.02-6.6-8.01-24.47-2.83-25.65,7.85-.49,4.45,1.93,7.55,6.26,8.55,2.85.66,5.45.51,8.18,1.79,8.24,3.88,9.02,15,5.13,22.22-5.18,9.6-17.83,12.59-28.27,10.67-24.97-4.6-28.3-31.57-18-50.45,7.26-13.3,20.55-20.54,34.61-24.77,7.89-2.37,18.39-4.85,31.52-7.42,12.87-2.53,24.26-4.59,34.17-6.18,1.87-.3,3.95-.57,6.23-.82.4-.05.8.02,1.17.18,2.19.97,3.36,2.39,3.5,4.24.27,3.43.26,6.37-.03,8.8-.37,3.24-4.2,3.53-5.84,5.4-1.85,2.11-2.24,4.71-1.17,7.8,6.31,18.13,13.02,37.77,20.11,58.94.77,2.31,1.48,4.6,2.12,6.86.14.51.87.5,1-.01,4.47-17.04,9.06-34.23,13.75-51.58.46-1.7.41-3.35-.15-4.94-1.88-5.25-3.75-10.47-5.62-15.64-1.25-3.48-3.23-5.44-5.93-5.89-3.4-.57-5.04-2.06-5.01-5.29.06-4.98-.57-9,2.36-11.61.45-.41,1.88-.82,4.27-1.23,20.33-3.51,40.84-6.46,61.52-8.85,4.81-.55,5.8,2.91,5.74,7.05-.07,4.29.42,6.36-2.41,8.8-.25.22-.54.4-.84.53l-3.64,1.6c-.3.13-.57.32-.8.56-2.79,2.97-3.69,6.1-2.7,9.37,6.01,19.77,12.85,41.67,20.5,65.72.07.22.38.21.43,0l3.97-16.4c3.9-15.85,7.78-31.7,11.64-47.54.65-2.7.87-5.75.65-9.14-.27-4.22-2.86-6.05-6.72-6.67-5.12-.82-4.21-5.67-4.23-10.21-.02-3.21,1.25-6.47,4.36-6.81,3.17-.35,6.38-.76,9.64-1.22,11.11-1.13,22.27-2.25,33.5-3.36,1.81-.18,3.33.31,4.56,1.48,2.03,1.94,1.43,8.92,1.28,11.17-.21,3.13-2.28,4.03-5.55,5.31-4.65,1.84-6.74,6.44-7.91,10.93-8.05,30.76-18.53,71.12-31.44,121.08-.63,2.43-1.27,3.92-1.94,4.48-1.12.95-2.65,1.55-4.59,1.8-6.21.82-17.54,2.48-34.01,4.99-2.96.45-4.84-2.07-5.74-4.81-2.23-6.82-7.43-21.82-15.62-45-1.97-5.59-3.27-9.38-3.9-11.38Zm59.01,147.79c-5.21-.73-6.32-5.8-5.81-10.2.56-4.8,1.51-9.58,2.86-14.33.09-.32-.18-.63-.51-.57l-11.61,2.01c-.24.04-.43.21-.48.45-.92,3.97-2.03,8.17-3.32,12.58-1.78,6.03-4.81,11.68-11.36,12.95-4.3.84-6.74-2.78-5.46-6.9.14-.46.71-.64,1.09-.33,3.29,2.62,6.46-1.4,7.39-4.34,1.56-4.91,2.75-8.98,3.57-12.22.1-.4-.24-.78-.65-.71l-3.34.58c-.39.06-.77-.15-.9-.52-.62-1.74-.26-3.25,1.09-4.54.16-.16.36-.26.58-.31l3.63-.79c.31-.07.56-.3.65-.61l5.21-19.91c.1-.39-.2-.76-.6-.75-7.59.23-18.15,5.58-17.77,14.28.11,2.72,1.25,4.28,3.4,4.69.89.17,1.28,1.23.7,1.93l-1.65,1.98c-.63.76-1.58,1.19-2.58,1.15-8.6-.29-8.24-10.85-5.1-16.4,5.33-9.43,17.52-13.22,28.17-12.74,3.41.16,3.48,2.46,2.84,5.39-1.01,4.69-2.39,10.94-4.13,18.76-.1.46.29.87.75.79l10.9-1.89c.27-.05.5-.25.57-.52l5.65-21.61c.54-2.04,2.21-3.57,4.28-3.93l1.24-.21c1.83-.31,3.34,1.41,2.78,3.18-1.59,5.04-4.04,14.42-7.37,28.14-1.33,5.49-2.17,10.5-2.52,15.01-.19,2.51.5,6.15,3.89,5.36.28-.06.52.19.46.46-.85,3.59-3.03,5.13-6.54,4.64Zm232.88-29.6c-2.65,4.86-6.04,8.3-10.16,10.33-6.37,3.13-14.84,2.98-18.21-4.38-.18-.4-.73-.47-1-.11-2.93,3.88-8.97,8.21-13.99,5.5-1.46-.98-2.5-2.54-3.12-4.68-.05-.16-.25-.21-.37-.1-2.71,2.64-5.82,4.78-9.34,6.42-.62.29-1.1.81-1.32,1.45-2.59,7.22-4.05,13.14-10.59,16.47-9.3,4.73-18.13-4.66-8.94-11.91,3.06-2.41,6.84-4.35,11.33-5.82.35-.11.67-.32.92-.6.92-1.03,1.55-2.36,1.88-3.98.06-.28-.27-.48-.49-.3l-3.02,2.43c-.08.06-.17.11-.27.16-4.88,2.12-8.25.98-10.12-3.42-.17-.41-.71-.5-1-.17-1.92,2.13-4.05,3.68-6.38,4.67-5.32,2.26-10.77.3-10.75-6.15,0-.4-.5-.58-.76-.27-2.13,2.57-4.61,4.77-7.45,6.61-5.11,2.33-10.24,3.56-15.44.98-1.72-.86-2.86-2.11-3.43-3.74-.11-.33-.53-.42-.77-.17-3.95,4.21-8.65,6.4-14.11,6.55-4.38.12-8.34-1.95-10.1-5.96-.15-.33-.59-.35-.77-.05-2.52,4.31-7.92,8.83-12.88,7.34-2.26-.67-3.66-2.61-4.21-5.81,1.09-5.03,2.4-10.08,3.93-15.15.35-1.17.46-2.09.31-2.78-.27-1.25-1.71-1.83-2.77-1.11-3.03,2.05-5.08,4.97-6.15,8.76-1.25,4.41-2.53,9.51-3.84,15.31-.24,1.05-1.13,1.83-2.21,1.92l-4.1.32c-.91.07-1.62-.75-1.42-1.64,1.67-7.27,3.41-13.91,5.2-19.92.43-1.44-.03-2.74-1.36-3.89-3.98,1.57-6.61,4.83-7.89,9.79-1.66,6.45-2.85,11.35-3.56,14.69-.24,1.16-1.22,2.03-2.41,2.12l-3.67.3c-1.02.08-1.81-.87-1.55-1.85l2.67-10.2c.1-.39-.32-.7-.66-.5l-5.31,3.06c-.18.1-.33.26-.42.44-2.86,5.68-5.77,10.16-12.23,11.3-5.58.99-10.41-3.13-10.91-8.51-.75-8.05,1.68-14.65,7.27-19.81,3.6-3.31,9.82-5.45,13.98-2.16,2.03,1.61,3.25,3.71,3.64,6.32.37,2.43.32,4.66-.14,6.7-.23,1,.93,1.72,1.72,1.07l2.64-2.15c.98-.8,1.65-1.9,1.92-3.14l2.23-10.2c.13-.61.56-1.11,1.14-1.33,1.55-.59,3.31-.83,5.28-.74.86.04,1.45.89,1.18,1.7l-.7,2.14c-.06.18.03.37.2.45.17.08.38.01.47-.15,1.09-1.9,2.59-3.34,4.49-4.33,3.82-2.26,8.69-1.24,9.24,3.5.05.4.57.51.78.17,1.65-2.72,3.94-4.63,6.87-5.72,3.39-1.26,7.76-.09,8.3,3.94.15,1.13,0,2.6-.41,4.42-.09.37-1.32,4.99-3.69,13.87-.38,1.43.17,2.38,1.66,2.85.32.11.68.06.97-.12,2.59-1.61,4.55-3.83,5.89-6.66.17-.36.27-.76.29-1.16.63-10.31,8.03-22.02,19.79-19.54,1.78.37,3.17,1.5,4.16,3.38,2.07,3.89-.43,9-3.61,11.61-3.64,2.99-7.24,4.48-10.79,4.47-1.56,0-2.54,1.69-1.76,3.04l.72,1.24c1.05,1.83,3.1,2.83,5.18,2.55,3.2-.43,5.94-1.59,8.22-3.48,3.05-2.54,5.44-5.48,7.17-8.81,1.7-3.29,3.97-8.02,6.82-14.21,1.44-3.13,6.71-4.95,8.92-.92.15.27.12.61-.08.84l-1.46,1.77c-.12.14-.21.32-.24.51-.31,1.63-.33,2.82-.05,3.55,2.53,6.72,4.86,10.93,3.71,16.35-.08.36.33.63.63.41,7.03-5.13,7.78-12.39,10.6-19.86.14-.38-.15-.78-.56-.76l-3.16.19c-.72.04-1.25-.65-1.03-1.33l.59-1.8c.24-.74.9-1.25,1.67-1.3l3.09-.18c.67-.04,1.24-.51,1.41-1.16l2.23-8.5c.44-1.69,1.91-2.92,3.65-3.06l1.95-.16c1.75-.14,3.07,1.54,2.53,3.21l-2.85,8.74c-.15.45.21.91.68.87l4.24-.34c.86-.07,1.51.76,1.24,1.58l-.41,1.27c-.31.94-1.15,1.59-2.13,1.65l-4.88.29c-.24.01-.44.17-.51.4-2.12,6.83-3.55,11.86-4.28,15.09-.45,1.96-1.21,3.6.01,5.32.64.89,1.95,1.15,3.12.61,4.52-2.1,6.96-6.4,8.46-11.64.68-2.39,1.92-6.29,3.73-11.69.52-1.55,1.93-2.63,3.57-2.73l2.04-.12c1.64-.1,2.86,1.5,2.33,3.06-3.46,10.08-5.37,15.78-5.74,17.11-.28,1.03-.42,2.07-.43,3.1,0,1.32,1.05,2.39,2.36,2.42,2.29.05,5.45-4.34,6.19-6.12,1.5-3.63,3.37-9.32,5.61-17.07.44-1.51,1.78-2.58,3.34-2.67l2.52-.15c1.45-.09,2.53,1.32,2.08,2.7l-8.08,24.8c-.13.41.32.76.68.52,5.24-3.46,8.27-5.93,10.28-11.89,3.71-11.03,7.04-21.21,9.99-30.55.53-1.68,2.04-2.86,3.8-2.96l1.64-.1c1.92-.11,3.34,1.77,2.7,3.59-6.71,19.05-10.46,29.81-11.27,32.3-.81,2.5-2.11,5.76-.05,7.31,2.36,1.78,6.82-3.55,8-5.28.14-.2.22-.44.25-.68l.63-5.27c1.85-4.97,4.67-8.98,8.45-12.04,1.92-1.56,4.08-2.47,6.49-2.73,9.83-1.06,11.97,9.39,5.74,15.02-3.52,3.18-7.75,4.68-12.7,4.49-.44-.02-.8.33-.78.77.19,4.69,2.6,6.68,7.23,5.95,4.77-.74,8.76-3.63,11.97-8.67.44-.7,1.41-.81,2-.24l.02.03c.73.7.89,1.8.41,2.69Zm-81.13-74.71c-4.02.17-5.76-2.04-5.63-6.01.09-2.91-.94-7.4,2.21-9.63.24-.17.52-.29.82-.34,1.17-.21,2.77-.59,4.81-1.12,4.55-1.19,4.96-7.17,5-11.54.27-32.48.38-63.73.34-93.75,0-1.04-.18-2.55-.53-4.54-.96-5.46-4.9-5.42-9.27-6-.28-.03-.56-.13-.81-.28-1.6-.95-2.42-2.19-2.46-3.73-.13-4.75-.14-7.63,0-8.65.44-3.48,2.75-4.59,6.2-4.73,25.25-1.05,46.62-1.42,64.09-1.09,3.85.08,4.7,3.15,4.68,6.78-.03,4.66.72,7.24-1.89,9.72-1.51,1.44-5.61.94-7.31,2.04-2.41,1.56-3.64,3.74-3.7,6.54-.57,26.51-.7,59.43-.37,98.75.01,1.85.31,3.44.89,4.77.37.85,1.18,1.44,2.11,1.55,12.39,1.39,24.6-.78,32.47-11.45,4.17-5.65,7.45-12.45,9.86-20.39.9-2.96,4.3-4.17,7.51-3.71,6.75.99,13.18,1.18,11.35,10.12-.1.5-.26,1.38-.49,2.65-3.46,19.42-5.89,32.78-7.3,40.07-.68,3.47-3.46,3.99-6.78,3.85-35.39-1.41-70.66-1.37-105.79.12Zm301.77,91.89c-3.43,5.68-8.18,9.68-14.25,11.99-1.72.65-2.83,1.08-3.34,1.28-.31.12-.57.36-.7.67-3.05,7.33-8.19,15.36-16.82,14.39-7.92-.88-8.91-9.37-2.7-13.43,3.81-2.5,7.42-3.38,12.09-4.19.37-.07.7-.23.97-.48.83-.75,1.53-1.95,2.11-3.6.08-.22-.18-.4-.36-.25-3.78,3.14-10.04,3.43-12.37-1.58-.13-.27-.21-.65-.25-1.16-.02-.29-.06-.5-.13-.65-.15-.32-.54-.43-.84-.25-.07.04-.89.76-2.47,2.17-5.24,4.65-15.77,2.83-12.61-6.39.77-2.28,2.68-6.71,5.73-13.3.16-.34.24-.7.25-1.07,0-.41-.02-.71-.07-.91-.31-1.19-1.66-1.81-2.88-1.33-4.16,1.64-6.72,5.08-8.52,9.58-2.24,5.64-4.01,9.85-5.3,12.64-.29.62-.96.97-1.63.85l-5-.86c-.44-.08-.7-.54-.53-.96l.82-2.01c.19-.47-.42-.86-.76-.48-2.41,2.64-5.33,3.64-8.75,3.01-3.2-.59-4.79-2.51-4.78-5.77,0-.26-.31-.41-.51-.24-.19.15-.33.19-.44.12-4.27,5.12-13.59,7.58-15.92-.91-.5-1.81-.95-4.15-1.34-7-.02-.13-.06-.26-.13-.38l-.22-.39c-.41-.7-1.45-.61-1.74.15l-3.82,10.11c-.35.91-1.27,1.46-2.23,1.34l-4.07-.5c-.79-.1-1.28-.91-1-1.66l3.63-9.59c.12-.33-.25-.64-.55-.45-1.64,1-3.18,1.51-4.61,1.53-.63.01-1.2.35-1.5.9-2.35,4.28-5.72,6.93-10.13,7.94-8.14,1.88-13.48-4.49-12.28-12.25.06-.4-.34-.72-.72-.56-1.64.69-2.23,1-3.55,1-.67-.01-1.16.18-1.49.84-.73,1.45-1.54,2.7-2.44,3.76-2.72,3.52-6.03,5.44-9.92,5.75-5.59.45-9.63-2.64-10.67-8.06-.08-.39-.57-.51-.82-.21-1.33,1.61-2.59,3.04-3.78,4.27-9.29,9.6-26.18,11.99-32.21-2.6-2.67-6.44-2.18-13.08-.42-20.08,2.05-8.12,6.19-14.86,12.44-20.21,6.87-5.89,16.56-8.88,24.31-3.31,10.43,7.5-1.78,26.3-9.03,16.88-.57-.74-.26-1.83.61-2.16,3.23-1.24,4.99-3.48,5.28-6.72.33-3.73-2.04-6.03-5.68-5.57-6.28.78-11.12,5.44-14.44,10.93-4.48,7.43-8.99,21.34-3.73,29.36,2.11,3.23,5,4.77,8.66,4.6,7.31-.32,13.57-5.3,18-11.04.43-.56.74-1.21.9-1.9.86-3.65,2.53-6.87,5.01-9.66,3.99-5.04,11.66-8.05,17.23-4.18,4.61,3.21,4.49,9.43,2.76,14.68-.31.94.71,1.77,1.57,1.27l1.44-.83c1.1-.64,1.97-1.62,2.46-2.79,3.09-7.32,9.65-13.58,17.85-11.56,7.36,1.82,7.71,10.79,5.48,16.41-.36.92.64,1.77,1.49,1.28l2.9-1.67c1.07-.62,1.9-1.6,2.34-2.76l9.63-25.46c.65-1.71,2.38-2.76,4.19-2.53l1.62.2c1.71.22,2.75,2,2.1,3.6l-7.06,17.31c-.06.14,0,.3.13.38.13.07.29.05.39-.07,2.11-2.49,4.67-3.75,7.69-3.8,5.2-.07,8.05,4.35,6.36,9.14-1.82,5.17-5.71,8.17-11.68,8.99-.39.05-.64.45-.51.82,1.27,3.73,1.84,7.91,7.35,5.99,2.7-.94,4.95-3.16,6.74-6.66l5.64-13.8c.6-1.46,2.1-2.33,3.66-2.13l2.2.27c1.58.2,2.51,1.87,1.85,3.31-3.7,8.12-6.2,13.99-7.5,17.6-.63,1.75.23,3.89,2.52,3.23,3.37-.98,6.57-4.46,7.97-7.67,2.27-5.21,4.21-9.95,5.8-14.21.25-.68.94-1.1,1.67-1.01l4.7.59c.78.1,1.26.92.96,1.65l-.81,1.98c-.07.17-.01.36.15.46.15.09.36.07.48-.07,5.59-6.22,17.86-3.94,13.15,6.64-1.71,3.85-3.54,7.69-5.48,11.52-.65,1.29-.62,2.46.11,3.49.58.82,1.67,1.09,2.53.62,2.9-1.58,5.64-3.78,6.48-7.07,1.47-5.82,5.21-10.89,10.31-13.87,4.01-2.34,9.43-2.46,12.33,1.81.18.25.57.19.65-.11.63-2.19,4.93-1.21,6.29-.84,1.03.27,1.54,1.43,1.06,2.38-.9,1.8-4.52,9.37-10.87,22.71-.14.29-.08.53.18.73.19.15.38.17.59.08,5.08-2.23,9.26-5.73,12.53-10.5.4-.58,1.27-.55,1.62.06l.42.72c.31.54.3,1.2-.02,1.73Zm16.41-71.56c-19.91-3.05-40.8-5.97-62.66-8.74-5.92-.76-5.12-6.21-4.99-11.48.06-2.45.93-4.08,2.61-4.91,1.65-.81,3.86-.33,5.29-.65,4.13-.93,4.73-6.02,4.84-9.69,1.26-41.55,2.07-71.88,2.43-90.99.09-4.61-.05-8.36-.42-11.25-.39-3.14-2.42-5.87-5.78-6.53-3.52-.69-6.58-1.56-6.67-5.74-.08-3.93-.77-9.56,2.51-11.53.87-.53,2.5-.67,4.89-.44,20.95,2,42,4.58,63.16,7.75.33.05.65.17.94.34,1.83,1.09,2.82,2.47,2.98,4.13.19,1.96.18,4.74,0,8.34-.37,6.92-7.56,3.1-10.57,6.39-1.28,1.39-1.96,3.15-2.04,5.28-1.49,38.65-2.52,70.08-3.1,94.29-.04,1.66,0,4.67.12,9.02.14,5.29,2.87,8.43,8.2,9.43,5.2.99,3.66,7.2,3.81,10.72.17,3.9-1.46,6.88-5.54,6.26Zm47.96,71.57c-1.57,4.34-4.47,7.98-8.72,10.91-6.01,4.15-12.05,7.85-18.13,11.1-.38.2-.82.25-1.33.13-.51-.11-.9-.34-1.16-.69-4.1-5.53-7.98-11.46-11.64-17.78-2.58-4.47-3.65-9-3.22-13.59,1.31-13.52,18.54-16.6,23.59-3.8.04.12.18.2.42.26.24.05.4.04.49-.05,10.04-9.42,24.3.74,19.7,13.51Zm96.03-91.74c-1.07,6.47-3.54,20.54-7.4,42.22-.49,2.74-2.11,4.15-4.88,4.23-.31.01-.61-.03-.91-.11-30.75-8.1-67.44-15.64-110.09-22.63-4.1-.67-4.26-5.04-4.14-8.8.12-3.7-.17-6.55,3.29-7.75.29-.11.6-.16.91-.16,2.77,0,5.66.11,7.09-2.2.97-1.57,1.5-3.51,1.58-5.84,1.23-35.24,1.88-67.93,1.96-98.06.02-4.92.34-11.35-5.04-13.48-3.5-1.37-7.29-1.01-7.27-6.88.02-4.78-.8-9.66,3-11.22.88-.36,2.85-.31,5.9.16,36.61,5.57,72.62,12.83,108.01,21.76,2.85.72,3.64,3.72,3.71,6.82.41,17.21.64,28.52.69,33.94.04,3.77-2.82,5.39-6.46,5.55-4.33.19-9.14.46-10.62-3.89-.23-.7-.92-2.75-2.07-6.15-4.13-12.27-12.58-18.08-25.35-21.29-5.7-1.43-10.79-2.45-15.27-3.05-.42-.05-.78.26-.79.68l-.75,38.67c0,.37.24.69.59.78,5.54,1.44,14.15,2.64,16.88-3.8,1.64-3.88,2.09-8.49,7.92-7.39,4.19.79,11.2,1.02,10.98,7.15-.63,18.05-1.08,31.79-1.33,41.24-.09,3.26-.5,4.72-3.12,6.11-.77.41-1.73.57-2.88.5-5.26-.34-9.73-.04-11.13-5.27-1.48-5.53-2.98-10.57-8.59-12.56-2.86-1.01-5.97-1.64-9.34-1.87-.2-.02-.37.14-.38.34-.37,16.78-.47,30.34-.31,40.67.03,2.39,1.2,4.03,3.5,4.91,2.22.85,6.88,1.62,13.98,2.3,9.54.92,16.94-2.31,22.19-9.7,3.5-4.9,5.97-9.69,7.75-14.49,1.26-3.38,4.54-4.06,8.17-3.16,4.35,1.08,6.73,1.75,7.16,2,3.64,2.12,3.58,5.41,2.86,9.72Zm56.43-118.11c-.67,2.78-2.43,3.84-5.3,3.17-19.83-4.59-37.64-8.61-53.43-12.04-2.75-.6-4.53-1.27-5.32-2.02-1.41-1.33-2.11-3.1-2.09-5.29.04-4.78-.87-9.84,4.95-10.3,5.5-.45,5.02-5.72,4.11-10.12-1-4.83-2.15-9.86-3.44-15.07-.13-.5-.52-.89-1.02-1l-33.17-7.23c-.4-.08-.8.16-.91.55-1.83,6.37-3.11,11.46-3.83,15.29-.44,2.32.28,4.73,2.17,7.24.25.34.57.61.94.8,2.85,1.49,5.19,2.25,5.5,5.59.17,1.78.16,4.1-.01,6.97-.34,5.46-4.15,5.24-8.59,4.28-9.94-2.16-21.16-4.5-33.65-7.01-1.17-.23-2.33-1.36-3.5-3.38-.19-.32-.3-.68-.31-1.05-.23-4.49-.25-7.41-.08-8.76.26-1.96,1.3-3.14,3.13-3.54,4.45-.98,6.09-3.4,7.42-7.85,2.93-9.83,12.24-42.17,27.95-97.02,1.3-4.54,2.25-8.49-1.05-11.8-1.47-1.48-4.15-1.92-5.47-2.91-3.57-2.69-2.18-8.12-2.32-10.69-.26-4.78,1.26-8.23,6.69-7.4,9.45,1.43,26.93,4.52,52.45,9.26,3.7.68,5.96,2.83,6.77,6.44,6,26.58,14.03,59.07,19.72,86.36,3.49,16.78,7.09,34.06,10.79,51.83.84,4.02,2.07,7.84,4.71,10.73,2.53,2.77,6.49,2.32,6.59,7.42.09,4.23-.05,7.08-.4,8.55Z"/>
      <path class="cls-2" d="m567.55,333.98c1.41-7.29,3.84-20.65,7.3-40.07.23-1.27.39-2.15.49-2.65,1.83-8.94-4.6-9.13-11.35-10.12-3.21-.46-6.61.75-7.51,3.71-2.41,7.94-5.69,14.74-9.86,20.39-7.87,10.67-20.08,12.84-32.47,11.45-.93-.11-1.74-.7-2.11-1.55-.58-1.33-.88-2.92-.89-4.77-.33-39.32-.2-72.24.37-98.75.06-2.8,1.29-4.98,3.7-6.54,1.7-1.1,5.8-.6,7.31-2.04,2.61-2.48,1.86-5.06,1.89-9.72.02-3.63-.83-6.7-4.68-6.78-17.47-.33-38.84.04-64.09,1.09-3.45.14-5.76,1.25-6.2,4.73-.13,1.02-.12,3.9,0,8.65.04,1.54.86,2.78,2.46,3.73.25.15.53.25.81.28,4.37.58,8.31.54,9.27,6,.35,1.99.53,3.5.53,4.54.04,30.02-.07,61.27-.34,93.75-.04,4.37-.45,10.35-5,11.54-2.04.53-3.64.91-4.81,1.12-.3.05-.58.17-.82.34-3.15,2.23-2.12,6.72-2.21,9.63-.13,3.97,1.61,6.18,5.63,6.01,35.13-1.49,70.4-1.53,105.79-.12,3.32.14,6.1-.38,6.78-3.85Z"/>
      <path class="cls-2" d="m662.2,321.45c-5.61,1.53-11.66,1.6-18.14.22-1.25-.26-2.25-1.2-2.61-2.43-.57-1.98-.85-4.28-.83-6.9.31-38.49.93-70.64,1.86-96.44.08-2.19,1.13-4.18,3.16-5.97,2.12-1.87,5.49-1.04,7.52-1.75,1.5-.52,2.58-1.85,2.78-3.43.31-2.43.32-5.49.04-9.16-.15-2.04-1.29-3.47-3.42-4.28-.16-.07-.33-.11-.51-.12-21.28-1.77-43.03-2.97-65.25-3.58-2.49-.07-4.12.24-4.91.93-2.7,2.38-2.13,6.33-2.15,10.63-.02,5.23,2.79,5.5,7.18,6.48,7.49,1.68,6.31,10.96,6.26,18.24-.25,34.87-.78,65.88-1.57,89.33-.19,5.47-2.74,8.36-7.67,8.66-4.59.29-5.11,3.23-5.16,7.19-.05,3.46-.76,9.3,4.4,9.52,36.12,1.57,71.79,4.43,107,8.58,2.19.26,3.83-.76,4.93-3.07.08-.16.13-.33.16-.51,1.65-9.9,4.02-22.76,7.09-38.59.53-2.72,1.98-8.45,1.1-10.83-1.44-3.93-5.14-4.12-9.5-5.09-3.91-.87-7.33-.3-8.72,3.55-4.34,11.98-9.77,25.22-23.04,28.82Z"/>
      <path class="cls-2" d="m366.93,192.87c-2.84.24-5.35,1.37-5.72,4.2-.25,1.91-.36,4.75-.33,8.5.04,5.56,4.58,4.43,8.1,5.46,4.19,1.23,4.43,7.44,4.43,11.53-.04,29.74-.04,60.66,0,92.75,0,3.18-.44,5.72-1.32,7.63-1.44,3.13-3.94,3.62-7.41,4.31-.29.06-.56.18-.79.35-1.66,1.23-2.5,2.46-2.52,3.69-.13,6.56-1.79,12.79,6.36,12.08,19.51-1.69,39.87-3.11,61.06-4.27,7.66-.42,6.62-5.29,6.41-11.77-.07-2.07-.92-3.49-2.57-4.26-.21-.1-.44-.16-.67-.17-4.73-.22-9.02-1.13-9.7-6.84-.25-2.15-.4-5.85-.44-11.09-.23-28.05-.23-57.94.01-89.66.02-2.84,1.06-5.25,3.11-7.24,3.3-3.17,8.93.21,9.41-6.77.19-2.79.15-5.38-.13-7.77-.37-3.09-1.9-4.61-4.59-4.54-14.99.36-35.89,1.65-62.7,3.88Z"/>
      <path class="cls-2" d="m269.48,355.66c16.47-2.51,27.8-4.17,34.01-4.99,1.94-.25,3.47-.85,4.59-1.8.67-.56,1.31-2.05,1.94-4.48,12.91-49.96,23.39-90.32,31.44-121.08,1.17-4.49,3.26-9.09,7.91-10.93,3.27-1.28,5.34-2.18,5.55-5.31.15-2.25.75-9.23-1.28-11.17-1.23-1.17-2.75-1.66-4.56-1.48-11.23,1.11-22.39,2.23-33.5,3.36-3.26.46-6.47.87-9.64,1.22-3.11.34-4.38,3.6-4.36,6.81.02,4.54-.89,9.39,4.23,10.21,3.86.62,6.45,2.45,6.72,6.67.22,3.39,0,6.44-.65,9.14-3.86,15.84-7.74,31.69-11.64,47.54l-3.97,16.4c-.05.22-.36.23-.43,0-7.65-24.05-14.49-45.95-20.5-65.72-.99-3.27-.09-6.4,2.7-9.37.23-.24.5-.43.8-.56l3.64-1.6c.3-.13.59-.31.84-.53,2.83-2.44,2.34-4.51,2.41-8.8.06-4.14-.93-7.6-5.74-7.05-20.68,2.39-41.19,5.34-61.52,8.85-2.39.41-3.82.82-4.27,1.23-2.93,2.61-2.3,6.63-2.36,11.61-.03,3.23,1.61,4.72,5.01,5.29,2.7.45,4.68,2.41,5.93,5.89,1.87,5.17,3.74,10.39,5.62,15.64.56,1.59.61,3.24.15,4.94-4.69,17.35-9.28,34.54-13.75,51.58-.13.51-.86.52-1,.01-.64-2.26-1.35-4.55-2.12-6.86-7.09-21.17-13.8-40.81-20.11-58.94-1.07-3.09-.68-5.69,1.17-7.8,1.64-1.87,5.47-2.16,5.84-5.4.29-2.43.3-5.37.03-8.8-.14-1.85-1.31-3.27-3.5-4.24-.37-.16-.77-.23-1.17-.18-2.28.25-4.36.52-6.23.82-9.91,1.59-21.3,3.65-34.17,6.18-13.13,2.57-23.63,5.05-31.52,7.42-14.06,4.23-27.35,11.47-34.61,24.77-10.3,18.88-6.97,45.85,18,50.45,10.44,1.92,23.09-1.07,28.27-10.67,3.89-7.22,3.11-18.34-5.13-22.22-2.73-1.28-5.33-1.13-8.18-1.79-4.33-1-6.75-4.1-6.26-8.55,1.18-10.68,19.05-15.86,25.65-7.85,3.91,4.73,6.97,10.07,9.2,16.02,14.55,38.83,26.19,70.04,34.94,93.65,1.29,3.48,2.83,6.34,6.83,5.59,5.14-.96,14.66-2.78,28.57-5.45,2.59-.5,5-1.76,5.57-4.14.64-2.71,1.32-5.36,2.05-7.93,3.86-13.63,9.39-32.56,16.59-56.79.1-.35.6-.36.71-.01.63,2,1.93,5.79,3.9,11.38,8.19,23.18,13.39,38.18,15.62,45,.9,2.74,2.78,5.26,5.74,4.81Z"/>
      <path class="cls-2" d="m778.7,352.02c-.15-3.52,1.39-9.73-3.81-10.72-5.33-1-8.06-4.14-8.2-9.43-.12-4.35-.16-7.36-.12-9.02.58-24.21,1.61-55.64,3.1-94.29.08-2.13.76-3.89,2.04-5.28,3.01-3.29,10.2.53,10.57-6.39.19-3.6.2-6.38,0-8.34-.16-1.66-1.15-3.04-2.98-4.13-.29-.17-.61-.29-.94-.34-21.16-3.17-42.21-5.75-63.16-7.75-2.39-.23-4.02-.09-4.89.44-3.28,1.97-2.59,7.6-2.51,11.53.09,4.18,3.15,5.05,6.67,5.74,3.36.66,5.39,3.39,5.78,6.53.37,2.89.51,6.64.42,11.25-.36,19.11-1.17,49.44-2.43,90.99-.11,3.67-.71,8.76-4.84,9.69-1.43.32-3.64-.16-5.29.65-1.68.83-2.55,2.46-2.61,4.91-.13,5.27-.93,10.72,4.99,11.48,21.86,2.77,42.75,5.69,62.66,8.74,4.08.62,5.71-2.36,5.54-6.26Z"/>
      <path class="cls-2" d="m914.29,328.39c-.43-.25-2.81-.92-7.16-2-3.63-.9-6.91-.22-8.17,3.16-1.78,4.8-4.25,9.59-7.75,14.49-5.25,7.39-12.65,10.62-22.19,9.7-7.1-.68-11.76-1.45-13.98-2.3-2.3-.88-3.47-2.52-3.5-4.91-.16-10.33-.06-23.89.31-40.67,0-.2.18-.36.38-.34,3.37.23,6.48.86,9.34,1.87,5.61,1.99,7.11,7.03,8.59,12.56,1.4,5.23,5.87,4.93,11.13,5.27,1.15.07,2.11-.09,2.88-.5,2.62-1.39,3.03-2.85,3.12-6.11.25-9.45.7-23.19,1.33-41.24.22-6.13-6.79-6.36-10.98-7.15-5.83-1.1-6.28,3.51-7.92,7.39-2.73,6.44-11.34,5.24-16.88,3.8-.35-.09-.6-.41-.59-.78l.75-38.67c.01-.42.37-.73.79-.68,4.48.6,9.57,1.62,15.27,3.05,12.77,3.21,21.22,9.02,25.35,21.29,1.15,3.4,1.84,5.45,2.07,6.15,1.48,4.35,6.29,4.08,10.62,3.89,3.64-.16,6.5-1.78,6.46-5.55-.05-5.42-.28-16.73-.69-33.94-.07-3.1-.86-6.1-3.71-6.82-35.39-8.93-71.4-16.19-108.01-21.76-3.05-.47-5.02-.52-5.9-.16-3.8,1.56-2.98,6.44-3,11.22-.02,5.87,3.77,5.51,7.27,6.88,5.38,2.13,5.06,8.56,5.04,13.48-.08,30.13-.73,62.82-1.96,98.06-.08,2.33-.61,4.27-1.58,5.84-1.43,2.31-4.32,2.2-7.09,2.2-.31,0-.62.05-.91.16-3.46,1.2-3.17,4.05-3.29,7.75-.12,3.76.04,8.13,4.14,8.8,42.65,6.99,79.34,14.53,110.09,22.63.3.08.6.12.91.11,2.77-.08,4.39-1.49,4.88-4.23,3.86-21.68,6.33-35.75,7.4-42.22.72-4.31.78-7.6-2.86-9.72Z"/>
      <path class="cls-4" d="m436.3,47.46c1.15,1.15,3.35,1.15,4.79,1.59,1.17.35,2.12,1.21,2.59,2.34.81,1.95,1.22,3.93,1.23,5.92.15,27.15-.05,55.41-.61,84.77-.07,3.45-.92,5.95-2.55,7.49-1.74,1.65-4.74,1.42-5.9,3.7-.15.31-.26.63-.32.96-.15.87-.23,2.57-.24,5.1-.02,4.06-.24,7.12,3.99,8.09.18.05.36.06.55.05,11.81-.6,23.53-1.02,35.17-1.27,3.2-.07,5.29-.9,5.62-4.19.3-3.05.33-5.96.08-8.75-.13-1.41-1.09-2.62-2.44-3.06l-2.98-.97c-1.29-.42-2.32-1.41-2.8-2.68-.68-1.81-1.01-4.06-1-6.74.03-5.72,0-22.21-.07-49.47,0-.19.24-.26.34-.11,20.37,30.96,36.48,55.29,48.31,72.98,1.31,1.97,3.23,2.96,5.75,2.99,6.93.07,14.6.07,23,0,5.98-.05,5.16-6.41,5.15-10.39-.06-41.65,0-74.73.17-99.25.02-2.27.42-4.15,1.19-5.64,2.34-4.55,8.34-1.26,8.87-7.36.03-.38.04-2.95.03-7.72-.02-4.33-2.69-5.42-6.74-5.48-18.89-.28-31.06-.4-36.51-.35-3.93.04-4.95,3.09-4.9,6.7.05,3.07.07,5.11.08,6.12.03,6.84,7.93,2.77,9.92,8.39,1.18,3.33,1.06,6.55,1.18,10.09.37,11.15.63,23.43.76,36.84,0,.24-.31.33-.43.13-15.27-24.37-28.8-45.61-40.61-63.71-2.31-3.54-3.64-4.58-7.76-4.48-18.77.44-32.01.8-39.71,1.09-6.11.23-4.92,7.53-4.84,12.88,0,1.19.56,2.32,1.64,3.4Z"/>
      <path class="cls-4" d="m576.23,48.61c4.19.88,5.28,4.36,5.33,8.2.17,14.39.17,40.89,0,79.52-.02,4.62.29,11.88-5.28,13.16-2.72.63-4.19,1.64-4.36,4.31-.2,3.22-.23,6.01-.08,8.37.11,1.79,1.19,3.1,3.26,3.92.2.08.41.12.62.12,11.98.24,25.95.81,41.91,1.7,8.12.46,16.12.46,23.3-.66,41.15-6.41,50.18-52.15,43.75-85.83-3.29-17.24-10.95-31.26-25.78-40.14-7.04-4.22-17.23-6.95-25.21-7.66-14.59-1.31-33.93-2.18-58.03-2.59-.29,0-.59.08-.85.23-3.74,2.2-2.99,5.88-3.14,10.53-.12,3.87.76,6.01,4.56,6.82Zm43.87,7.58c0-.43.32-.79.75-.83,16.64-1.59,22.51,9.32,24.38,23.71,1.58,12.13,1.72,24.71.42,37.74-.57,5.71-1.57,11.01-3.02,15.9-3.1,10.5-10.08,15.14-20.95,13.93-.9-.1-1.58-.86-1.58-1.76V56.19Z"/>
      <path class="cls-4" d="m306.07,177.91c7.25-1.05,18.04-2.17,32.39-3.34,6.84-.56,5.61-7.86,5.28-12.48-.1-1.34-.9-2.53-2.1-3.12-1.29-.63-3.43-.85-4.38-2.16-.94-1.3-1.21-2.81-.82-4.53.73-3.16,1.72-6.65,2.96-10.48.25-.77.94-1.31,1.75-1.38l33.56-2.7c.29-.02.55.15.64.43,1.23,4.1,2.15,7.84,2.76,11.21.82,4.46-2.5,5.22-5.56,6.86-1.37.73-2.24,2.15-2.26,3.71-.05,3.61-.04,5.98.03,7.11.14,2.35,1.33,3.78,3.56,4.3.19.05.37.06.56.05l52.94-3.13c.13,0,.26-.04.38-.08,2.55-.94,3.82-2.49,3.83-4.65,0-2.25.02-4.46.05-6.61.08-6.13-5.22-4.1-8.03-7.52-1.1-1.33-1.9-2.88-2.39-4.64-10.22-36.55-20.29-72.09-30.2-106.63-.8-2.8-2.01-4.95-5.07-4.82-9.43.39-26.31,1.59-50.62,3.6-3.78.31-6.36,1.07-6.79,4.94-.28,2.5-.25,5.51.09,9.03.22,2.22,2.12,2.99,4.33,3.38,1.38.24,2.57.8,3.57,1.67,1.04,2.57,1.01,5.78-.08,9.61-7.9,27.68-16.03,55.29-24.4,82.84-1.7,5.59-3.07,12.1-9.57,13.78-3.48,2.32-2.74,7.15-2.76,10.49-.01,4.02,2.07,5.88,6.35,5.26Zm40.55-60.71l12.03-36.9c.05-.14.25-.13.29.01l10.43,35.18c.12.4-.16.81-.58.85l-21.48,1.73c-.48.04-.84-.42-.69-.87Z"/>
      <path class="cls-4" d="m691.89,172.97c11.27,1.03,23.21,2.2,35.82,3.52,2.05.21,3.49-.82,4.34-3.1.09-.23.13-.46.14-.7.06-1.68.08-4.23.07-7.64-.02-2.65-1.57-4.07-4.14-5.12-4.46-1.84-4.57-6.96-4.57-11.62,0-18.31.04-34.07.09-47.28,0-.21.27-.28.37-.1.47.85.86,1.73,1.19,2.66,4.73,13.42,12.43,35.82,23.09,67.2,1.44,4.24,6.54,3.92,10.5,4.38,3.87.45,5.31-1.79,6.51-5.3,5.33-15.54,12.63-35.74,21.89-60.6.09-.23.43-.17.43.07.3,15.67.32,33.32.06,52.95-.08,6.82-7.18,3.66-7.83,9.11-.3,2.47-.38,5.07-.24,7.79.11,1.98,1.11,3.5,3,4.56.27.15.56.25.86.29,6.79.87,21.56,3.34,44.31,7.41,4.22.75,5.72-1.81,5.75-5.88.02-3.18.8-7.73-1.6-9.28-1.83-1.17-3.02-1.93-3.59-2.27-.37-.22-.68-.51-.91-.87-1.29-1.96-1.95-4.16-2-6.59-.63-32.49-.68-63.36-.14-92.61.07-3.55,2.5-5.41,5.96-5.59,5.39-.29,4.23-7.72,4.05-11.75-.14-3.11-1.46-4.9-3.95-5.37-4.69-.89-17.01-2.65-36.96-5.3-2.65-.35-5.55-.11-6.68,2.39-8.65,19.11-16.43,36.9-23.34,53.37-.11.25-.47.24-.55-.02-5.91-17.82-12.69-36.89-20.32-57.22-.93-2.47-1.97-4.23-4.55-4.47-12.22-1.17-27.07-2.23-44.56-3.2-6.82-.38-5.56,7.91-5.23,12.87.23,3.35,2.64,3.85,5.43,4.92,3.61,1.38,4.15,5.56,4.12,8.98-.22,29-.56,51.83-1.02,68.5-.23,8.59-.52,14.65-.85,18.17-.23,2.39-1.49,5.23-4.13,5.75-2.01.4-4.68,1.2-5.18,3.67-.46,2.28-.52,5.07-.17,8.36.33,3.06,1.84,4.71,4.53,4.96Z"/>
      <path class="cls-4" d="m967.39,204.03c-2.64-2.89-3.87-6.71-4.71-10.73-3.7-17.77-7.3-35.05-10.79-51.83-5.69-27.29-13.72-59.78-19.72-86.36-.81-3.61-3.07-5.76-6.77-6.44-25.52-4.74-43-7.83-52.45-9.26-5.43-.83-6.95,2.62-6.69,7.4.14,2.57-1.25,8,2.32,10.69,1.32.99,4,1.43,5.47,2.91,3.3,3.31,2.35,7.26,1.05,11.8-15.71,54.85-25.02,87.19-27.95,97.02-1.33,4.45-2.97,6.87-7.42,7.85-1.83.4-2.87,1.58-3.13,3.54-.17,1.35-.15,4.27.08,8.76,0,.37.12.73.31,1.05,1.17,2.02,2.33,3.15,3.5,3.38,12.49,2.51,23.71,4.85,33.65,7.01,4.44.96,8.25,1.18,8.59-4.28.17-2.87.18-5.19.01-6.97-.31-3.34-2.65-4.1-5.5-5.59-.37-.19-.69-.46-.94-.8-1.89-2.51-2.61-4.92-2.17-7.24.72-3.83,2-8.92,3.83-15.29.11-.39.51-.63.91-.55l33.17,7.23c.5.11.89.5,1.02,1,1.29,5.21,2.44,10.24,3.44,15.07.91,4.4,1.39,9.67-4.11,10.12-5.82.46-4.91,5.52-4.95,10.3-.02,2.19.68,3.96,2.09,5.29.79.75,2.57,1.42,5.32,2.02,15.79,3.43,33.6,7.45,53.43,12.04,2.87.67,4.63-.39,5.3-3.17.35-1.47.49-4.32.4-8.55-.1-5.1-4.06-4.65-6.59-7.42Zm-60.22-61.97l-22.17-4.83c-.18-.04-.29-.22-.24-.4l11.45-38.44c.1-.31.54-.3.62.02l10.72,43.26c.05.23-.15.44-.38.39Z"/>
      <path class="cls-4" d="m101.27,214.44c12.77-2.09,23.97-7.87,33.58-17.32.29-.29.77-.23.99.11,4.04,6.43,7.02,6.75,13.92,5.13,5.06-1.19,12.07-2.06,12.03-7.8-.06-10.81-.04-30.06.05-57.73.01-2.13.65-3.94,1.91-5.44,2.26-2.7,5.48-2.43,5.99-6.79.34-2.91.25-6.08-.28-9.51-.46-2.97-2.05-4.27-4.76-3.92-14,1.81-30.64,4.57-49.93,8.27-4.13.8-7.71.81-9.2,5.34-.27.82-.4,2.49-.38,5.01.04,6.98-.17,10.91,8.42,10.46,3.89-.2,6.35,2.23,6.52,6.13.3,6.81.31,15.44.03,25.91-.17,6.06-2.3,10.42-6.4,13.08-4.56,2.96-10.84,3.46-15.68,1.31-18.07-7.99-19.17-41.04-19.05-58.1.09-12.12,1.29-22.82,3.58-32.11,1.8-7.3,4.65-13.46,8.54-18.49,5.5-7.08,15.51-11.66,24.22-8.85,6.04,1.95,9.11,5.88,9.21,11.8,0,.86-.35,2.58-1.09,5.15-2.57,8.88,5.72,13.09,13.22,12.76,11.13-.5,21.66-7.04,23.38-18.83,1.61-11.1-1.74-20.47-10.06-28.11-10.09-9.27-26.18-10.98-39.59-10.12-29.33,1.88-52.87,13.5-66.91,40.18-7.95,15.11-12.39,31.39-13.32,48.85-1.69,31.74,6.56,73.45,42.53,82.82,8.6,2.25,18.11,2.52,28.53.81Z"/>
      <path class="cls-4" d="m175.95,72.59c1.27,1.08,3.9.98,5.22,1.26.28.05.54.15.78.3,2.61,1.52,3.05,5.51,3.06,8.16.09,43.04.14,70.62.15,82.75,0,4.03-.27,7-.83,8.91-1.14,3.92-2.35,4.39-5.64,6.1-1.42.74-2.37,2.15-2.52,3.75-.12,1.27-.12,3.75.01,7.44.15,4.66,2.96,5.59,7.29,4.89,10.64-1.73,26.09-4.31,46.36-7.76,2.19-.37,3.61-.87,4.28-1.5,2.8-2.61,2.22-6.51,2.13-11.09-.03-1.38-.45-2.59-1.28-3.63-.26-.33-1.4-.79-3.43-1.39-3.05-.89-4.65-3.01-4.81-6.34-.38-7.94-.42-17.96-.12-30.06,0-.18.11-.33.27-.4,3.1-1.23,5.4-.55,6.91,2.02.99,1.69,1.94,3.77,2.87,6.22,4.93,13.13,7.6,20.27,7.99,21.42,1.56,4.52,3.18,8.07,4.86,10.64,9.1,13.97,30.74,11.58,42.74,3.25,4.63-3.21,6.07-7.65,4.34-13.3-.37-1.23-1.57-2.12-3.02-2.25-3.84-.34-6.52-2.44-8.04-6.29-.33-.82-2.06-5.27-5.21-13.34-3.62-9.29-6.43-16.72-13.63-22.27-.27-.21-.24-.63.07-.79,12.1-6.27,19.58-16.06,22.43-29.35,4.07-18.92-1.43-39.09-22.18-44.29-4.89-1.23-13.12-1.23-18.29-.69-22.27,2.32-43.02,6.19-67.53,10.28-4.18.7-7.02,1.68-7.14,6.08-.11,3.61-.96,8.83,1.91,11.27Zm50.53-.78c0-.5.33-.94.8-1.08,9.14-2.7,19.1-1.42,21.47,9.35,1.58,7.17.76,17.07-3.53,22.96-4.34,5.96-11.15,8.26-18.2,8.83-.29.03-.54-.2-.54-.5v-39.56Z"/>
      <path class="cls-4" d="m226.7,406.94c-4.99.46-8.84,3.03-11.57,7.7-.23.39-.75.47-1.09.17-3.33-2.95-6.76-4.11-10.27-3.48-11.83,2.13-13.65,15.19-6.76,23.17,5.42,6.28,12.85,10.15,22.44,15.85,1.23.73,2.28.52,3.13-.65,4.57-6.22,10.11-12.99,14.18-20.84,1.51-2.9,2.25-6.33,2.22-10.28-.06-6.74-5.28-12.29-12.28-11.64Z"/>
      <path class="cls-4" d="m801.42,416.34c-.09.09-.25.1-.49.05-.24-.06-.38-.14-.42-.26-5.05-12.8-22.28-9.72-23.59,3.8-.43,4.59.64,9.12,3.22,13.59,3.66,6.32,7.54,12.25,11.64,17.78.26.35.65.58,1.16.69.51.12.95.07,1.33-.13,6.08-3.25,12.12-6.95,18.13-11.1,4.25-2.93,7.15-6.57,8.72-10.91,4.6-12.77-9.66-22.93-19.7-13.51Z"/>
      <path class="cls-4" d="m535.68,409.94c-.59-.57-1.56-.46-2,.24-3.21,5.04-7.2,7.93-11.97,8.67-4.63.73-7.04-1.26-7.23-5.95-.02-.44.34-.79.78-.77,4.95.19,9.18-1.31,12.7-4.49,6.23-5.63,4.09-16.08-5.74-15.02-2.41.26-4.57,1.17-6.49,2.73-3.78,3.06-6.6,7.07-8.45,12.04l-.63,5.27c-.03.24-.11.48-.25.68-1.18,1.73-5.64,7.06-8,5.28-2.06-1.55-.76-4.81.05-7.31.81-2.49,4.56-13.25,11.27-32.3.64-1.82-.78-3.7-2.7-3.59l-1.64.1c-1.76.1-3.27,1.28-3.8,2.96-2.95,9.34-6.28,19.52-9.99,30.55-2.01,5.96-5.04,8.43-10.28,11.89-.36.24-.81-.11-.68-.52l8.08-24.8c.45-1.38-.63-2.79-2.08-2.7l-2.52.15c-1.56.09-2.9,1.16-3.34,2.67-2.24,7.75-4.11,13.44-5.61,17.07-.74,1.78-3.9,6.17-6.19,6.12-1.31-.03-2.36-1.1-2.36-2.42.01-1.03.15-2.07.43-3.1.37-1.33,2.28-7.03,5.74-17.11.53-1.56-.69-3.16-2.33-3.06l-2.04.12c-1.64.1-3.05,1.18-3.57,2.73-1.81,5.4-3.05,9.3-3.73,11.69-1.5,5.24-3.94,9.54-8.46,11.64-1.17.54-2.48.28-3.12-.61-1.22-1.72-.46-3.36-.01-5.32.73-3.23,2.16-8.26,4.28-15.09.07-.23.27-.39.51-.4l4.88-.29c.98-.06,1.82-.71,2.13-1.65l.41-1.27c.27-.82-.38-1.65-1.24-1.58l-4.24.34c-.47.04-.83-.42-.68-.87l2.85-8.74c.54-1.67-.78-3.35-2.53-3.21l-1.95.16c-1.74.14-3.21,1.37-3.65,3.06l-2.23,8.5c-.17.65-.74,1.12-1.41,1.16l-3.09.18c-.77.05-1.43.56-1.67,1.3l-.59,1.8c-.22.68.31,1.37,1.03,1.33l3.16-.19c.41-.02.7.38.56.76-2.82,7.47-3.57,14.73-10.6,19.86-.3.22-.71-.05-.63-.41,1.15-5.42-1.18-9.63-3.71-16.35-.28-.73-.26-1.92.05-3.55.03-.19.12-.37.24-.51l1.46-1.77c.2-.23.23-.57.08-.84-2.21-4.03-7.48-2.21-8.92.92-2.85,6.19-5.12,10.92-6.82,14.21-1.73,3.33-4.12,6.27-7.17,8.81-2.28,1.89-5.02,3.05-8.22,3.48-2.08.28-4.13-.72-5.18-2.55l-.72-1.24c-.78-1.35.2-3.04,1.76-3.04,3.55.01,7.15-1.48,10.79-4.47,3.18-2.61,5.68-7.72,3.61-11.61-.99-1.88-2.38-3.01-4.16-3.38-11.76-2.48-19.16,9.23-19.79,19.54-.02.4-.12.8-.29,1.16-1.34,2.83-3.3,5.05-5.89,6.66-.29.18-.65.23-.97.12-1.49-.47-2.04-1.42-1.66-2.85,2.37-8.88,3.6-13.5,3.69-13.87.42-1.82.56-3.29.41-4.42-.54-4.03-4.91-5.2-8.3-3.94-2.93,1.09-5.22,3-6.87,5.72-.21.34-.73.23-.78-.17-.55-4.74-5.42-5.76-9.24-3.5-1.9.99-3.4,2.43-4.49,4.33-.09.16-.3.23-.47.15-.17-.08-.26-.27-.2-.45l.7-2.14c.27-.81-.32-1.66-1.18-1.7-1.97-.09-3.73.15-5.28.74-.58.22-1.01.72-1.14,1.33l-2.23,10.2c-.27,1.24-.94,2.34-1.92,3.14l-2.64,2.15c-.79.65-1.95-.07-1.72-1.07.46-2.04.51-4.27.14-6.7-.39-2.61-1.61-4.71-3.64-6.32-4.16-3.29-10.38-1.15-13.98,2.16-5.59,5.16-8.02,11.76-7.27,19.81.5,5.38,5.33,9.5,10.91,8.51,6.46-1.14,9.37-5.62,12.23-11.3.09-.18.24-.34.42-.44l5.31-3.06c.34-.2.76.11.66.5l-2.67,10.2c-.26.98.53,1.93,1.55,1.85l3.67-.3c1.19-.09,2.17-.96,2.41-2.12.71-3.34,1.9-8.24,3.56-14.69,1.28-4.96,3.91-8.22,7.89-9.79,1.33,1.15,1.79,2.45,1.36,3.89-1.79,6.01-3.53,12.65-5.2,19.92-.2.89.51,1.71,1.42,1.64l4.1-.32c1.08-.09,1.97-.87,2.21-1.92,1.31-5.8,2.59-10.9,3.84-15.31,1.07-3.79,3.12-6.71,6.15-8.76,1.06-.72,2.5-.14,2.77,1.11.15.69.04,1.61-.31,2.78-1.53,5.07-2.84,10.12-3.93,15.15.55,3.2,1.95,5.14,4.21,5.81,4.96,1.49,10.36-3.03,12.88-7.34.18-.3.62-.28.77.05,1.76,4.01,5.72,6.08,10.1,5.96,5.46-.15,10.16-2.34,14.11-6.55.24-.25.66-.16.77.17.57,1.63,1.71,2.88,3.43,3.74,5.2,2.58,10.33,1.35,15.44-.98,2.84-1.84,5.32-4.04,7.45-6.61.26-.31.76-.13.76.27-.02,6.45,5.43,8.41,10.75,6.15,2.33-.99,4.46-2.54,6.38-4.67.29-.33.83-.24,1,.17,1.87,4.4,5.24,5.54,10.12,3.42.1-.05.19-.1.27-.16l3.02-2.43c.22-.18.55.02.49.3-.33,1.62-.96,2.95-1.88,3.98-.25.28-.57.49-.92.6-4.49,1.47-8.27,3.41-11.33,5.82-9.19,7.25-.36,16.64,8.94,11.91,6.54-3.33,8-9.25,10.59-16.47.22-.64.7-1.16,1.32-1.45,3.52-1.64,6.63-3.78,9.34-6.42.12-.11.32-.06.37.1.62,2.14,1.66,3.7,3.12,4.68,5.02,2.71,11.06-1.62,13.99-5.5.27-.36.82-.29,1,.11,3.37,7.36,11.84,7.51,18.21,4.38,4.12-2.03,7.51-5.47,10.16-10.33.48-.89.32-1.99-.41-2.69l-.02-.03Zm-12.91-12.51c1.42-.16,2.64,1.04,2.54,2.49-.33,4.92-4.79,7.56-9.26,8.43-.4.08-.76-.28-.68-.68.66-3.18,3.94-9.85,7.4-10.24Zm-126.55,13.92c1.02-3.59,3.55-9.51,6.98-10.64,1.93-.63,3.62.63,3.39,2.72-.49,4.42-5.51,7.59-9.56,8.73-.49.14-.95-.32-.81-.81Zm-65.31,6.43c-.1.61-.77.93-1.3.62-.26-.15-.66-.76-1.21-1.81-.39-.75-1.47-.75-1.86,0l-.66,1.28c-.08.15-.13.32-.14.49-.13,1.94.83,3.33,2.9,4.18.44.18.67.67.53,1.12-.61,1.98-1.6,3.6-2.95,4.85-3.93,3.64-6.04-1.15-6.08-4.45-.06-4.99,1.6-12.86,6.17-15.79.28-.17.58-.29.89-.36,5.4-1.09,4.2,6.73,3.71,9.87Zm90.49,4.22c-.96-.24-1.44-1.31-.99-2.18l.52-1.01c.14-.27.19-.57.13-.87-.27-1.3-1.25-1.86-2.94-1.68-.12.01-.2-.11-.15-.21l5.97-11.54c.16-.3.61-.24.68.09.41,1.85,1.24,4.54,2.51,8.05,1.5,4.15.57,10.93-5.73,9.35Zm44.04,17.25c-1.5,1.29-2.8,1.46-3.89.51-1.09-.95-1.1-2.26-.03-3.93,1.24-1.92,3.88-3.78,7.94-5.58.04-.02.24.09.27.12.03.02.17.2.16.25-1.23,4.27-2.72,7.14-4.45,8.63Z"/>
      <path class="cls-4" d="m309.31,437.16c-3.39.79-4.08-2.85-3.89-5.36.35-4.51,1.19-9.52,2.52-15.01,3.33-13.72,5.78-23.1,7.37-28.14.56-1.77-.95-3.49-2.78-3.18l-1.24.21c-2.07.36-3.74,1.89-4.28,3.93l-5.65,21.61c-.07.27-.3.47-.57.52l-10.9,1.89c-.46.08-.85-.33-.75-.79,1.74-7.82,3.12-14.07,4.13-18.76.64-2.93.57-5.23-2.84-5.39-10.65-.48-22.84,3.31-28.17,12.74-3.14,5.55-3.5,16.11,5.1,16.4,1,.04,1.95-.39,2.58-1.15l1.65-1.98c.58-.7.19-1.76-.7-1.93-2.15-.41-3.29-1.97-3.4-4.69-.38-8.7,10.18-14.05,17.77-14.28.4-.01.7.36.6.75l-5.21,19.91c-.09.31-.34.54-.65.61l-3.63.79c-.22.05-.42.15-.58.31-1.35,1.29-1.71,2.8-1.09,4.54.13.37.51.58.9.52l3.34-.58c.41-.07.75.31.65.71-.82,3.24-2.01,7.31-3.57,12.22-.93,2.94-4.1,6.96-7.39,4.34-.38-.31-.95-.13-1.09.33-1.28,4.12,1.16,7.74,5.46,6.9,6.55-1.27,9.58-6.92,11.36-12.95,1.29-4.41,2.4-8.61,3.32-12.58.05-.24.24-.41.48-.45l11.61-2.01c.33-.06.6.25.51.57-1.35,4.75-2.3,9.53-2.86,14.33-.51,4.4.6,9.47,5.81,10.2,3.51.49,5.69-1.05,6.54-4.64.06-.27-.18-.52-.46-.46Z"/>
      <path class="cls-3" d="m691.91,390.93c-.53-.23-1.09-.35-1.67-.36-.29,0-.58.02-.87.07-.86.15-1.71.54-2.41,1.19-.47.43-.84.93-1.1,1.47-.26.54-.41,1.11-.45,1.68-.08,1.15.27,2.31,1.09,3.2.41.45.89.78,1.42,1.01.53.23,1.09.35,1.67.36.29,0,.58-.02.87-.07.86-.15,1.71-.54,2.41-1.19.47-.43.84-.93,1.1-1.47s.41-1.11.45-1.68c.04-.57-.03-1.15-.21-1.7-.18-.54-.47-1.06-.88-1.5-.41-.45-.89-.78-1.42-1.01Z"/>
      <path class="cls-4" d="m756.35,427.39c-.35-.61-1.22-.64-1.62-.06-3.27,4.77-7.45,8.27-12.53,10.5-.21.09-.4.07-.59-.08-.26-.2-.32-.44-.18-.73,6.35-13.34,9.97-20.91,10.87-22.71.48-.95-.03-2.11-1.06-2.38-1.36-.37-5.66-1.35-6.29.84-.08.3-.47.36-.65.11-2.9-4.27-8.32-4.15-12.33-1.81-5.1,2.98-8.84,8.05-10.31,13.87-.84,3.29-3.58,5.49-6.48,7.07-.86.47-1.95.2-2.53-.62-.73-1.03-.76-2.2-.11-3.49,1.94-3.83,3.77-7.67,5.48-11.52,4.71-10.58-7.56-12.86-13.15-6.64-.12.14-.33.16-.48.07-.16-.1-.22-.29-.15-.46l.81-1.98c.3-.73-.18-1.55-.96-1.65l-4.7-.59c-.73-.09-1.42.33-1.67,1.01-1.59,4.26-3.53,9-5.8,14.21-1.4,3.21-4.6,6.69-7.97,7.67-2.29.66-3.15-1.48-2.52-3.23,1.3-3.61,3.8-9.48,7.5-17.6.66-1.44-.27-3.11-1.85-3.31l-2.2-.27c-1.56-.2-3.06.67-3.66,2.13l-5.64,13.8c-1.79,3.5-4.04,5.72-6.74,6.66-5.51,1.92-6.08-2.26-7.35-5.99-.13-.37.12-.77.51-.82,5.97-.82,9.86-3.82,11.68-8.99,1.69-4.79-1.16-9.21-6.36-9.14-3.02.05-5.58,1.31-7.69,3.8-.1.12-.26.14-.39.07-.13-.08-.19-.24-.13-.38l7.06-17.31c.65-1.6-.39-3.38-2.1-3.6l-1.62-.2c-1.81-.23-3.54.82-4.19,2.53l-9.63,25.46c-.44,1.16-1.27,2.14-2.34,2.76l-2.9,1.67c-.85.49-1.85-.36-1.49-1.28,2.23-5.62,1.88-14.59-5.48-16.41-8.2-2.02-14.76,4.24-17.85,11.56-.49,1.17-1.36,2.15-2.46,2.79l-1.44.83c-.86.5-1.88-.33-1.57-1.27,1.73-5.25,1.85-11.47-2.76-14.68-5.57-3.87-13.24-.86-17.23,4.18-2.48,2.79-4.15,6.01-5.01,9.66-.16.69-.47,1.34-.9,1.9-4.43,5.74-10.69,10.72-18,11.04-3.66.17-6.55-1.37-8.66-4.6-5.26-8.02-.75-21.93,3.73-29.36,3.32-5.49,8.16-10.15,14.44-10.93,3.64-.46,6.01,1.84,5.68,5.57-.29,3.24-2.05,5.48-5.28,6.72-.87.33-1.18,1.42-.61,2.16,7.25,9.42,19.46-9.38,9.03-16.88-7.75-5.57-17.44-2.58-24.31,3.31-6.25,5.35-10.39,12.09-12.44,20.21-1.76,7-2.25,13.64.42,20.08,6.03,14.59,22.92,12.2,32.21,2.6,1.19-1.23,2.45-2.66,3.78-4.27.25-.3.74-.18.82.21,1.04,5.42,5.08,8.51,10.67,8.06,3.89-.31,7.2-2.23,9.92-5.75.9-1.06,1.71-2.31,2.44-3.76.33-.66.82-.85,1.49-.84,1.32,0,1.91-.31,3.55-1,.38-.16.78.16.72.56-1.2,7.76,4.14,14.13,12.28,12.25,4.41-1.01,7.78-3.66,10.13-7.94.3-.55.87-.89,1.5-.9,1.43-.02,2.97-.53,4.61-1.53.3-.19.67.12.55.45l-3.63,9.59c-.28.75.21,1.56,1,1.66l4.07.5c.96.12,1.88-.43,2.23-1.34l3.82-10.11c.29-.76,1.33-.85,1.74-.15l.22.39c.07.12.11.25.13.38.39,2.85.84,5.19,1.34,7,2.33,8.49,11.65,6.03,15.92.91.11.07.25.03.44-.12.2-.17.51-.02.51.24-.01,3.26,1.58,5.18,4.78,5.77,3.42.63,6.34-.37,8.75-3.01.34-.38.95.01.76.48l-.82,2.01c-.17.42.09.88.53.96l5,.86c.67.12,1.34-.23,1.63-.85,1.29-2.79,3.06-7,5.3-12.64,1.8-4.5,4.36-7.94,8.52-9.58,1.22-.48,2.57.14,2.88,1.33.05.2.08.5.07.91,0,.37-.09.73-.25,1.07-3.05,6.59-4.96,11.02-5.73,13.3-3.16,9.22,7.37,11.04,12.61,6.39,1.58-1.41,2.4-2.13,2.47-2.17.3-.18.69-.07.84.25.07.15.11.36.13.65.04.51.12.89.25,1.16,2.33,5.01,8.59,4.72,12.37,1.58.18-.15.44.03.36.25-.58,1.65-1.28,2.85-2.11,3.6-.27.25-.6.41-.97.48-4.67.81-8.28,1.69-12.09,4.19-6.21,4.06-5.22,12.55,2.7,13.43,8.63.97,13.77-7.06,16.82-14.39.13-.31.39-.55.7-.67.51-.2,1.62-.63,3.34-1.28,6.07-2.31,10.82-6.31,14.25-11.99.32-.53.33-1.19.02-1.73l-.42-.72Zm-149.7-16.46c-.24.78-1.35.77-1.58-.01l-.42-1.39c-.28-.96-1.62-1.01-1.97-.08-.81,2.15-.36,4.73,1.34,7.75-1.19,1.75-2.39,3.09-3.59,4.02-2.18,1.68-4.65.29-4.9-2.16-.69-6.61,1.26-12.31,5.83-17.12,7.89-4.74,6.43,5.24,5.29,8.99Zm28.81,2.41c-.23.66-1.11.76-1.48.17-.26-.42-.61-1.18-1.05-2.28-.17-.43-.66-.63-1.08-.45-.39.17-.65.48-.8.91-.89,2.73-.34,4.84,1.65,6.33.37.27.46.78.21,1.17-1.21,1.84-3.83,5.26-6.14,4.7-4.55-1.09-2.51-8.01-1.63-10.84,1.14-3.69,3.37-8.29,6.9-9.88,2.09-.94,4.22.21,4.55,2.43.33,2.22-.29,5.29-1.13,7.74Zm20.13,2.23c-.42-.01-.69-.44-.52-.82,1.34-2.99,6.03-8.86,9.53-8.5,1.44.16,2.38,1.6,1.97,3.02-1.4,4.78-6.38,6.42-10.98,6.3Zm74.52,30c-1.26,2.8-4.04,7.31-6.97,7.81-1.64.28-2.87-.95-2.43-2.62.94-3.54,5.4-5.51,8.84-5.95.42-.05.73.37.56.76Zm3.49-13.4c-2.85,1.84-4.67,1.3-5.48-1.61-.4-1.44-.01-3.35,1.18-5.74,1.89-4.34,5.58-10.91,11.19-9.77,1.48.3,2.32,1.87,1.76,3.27-1.8,4.44-4.44,11.27-8.65,13.85Z"/>
    </g>
  </g>
</svg>